Coordinates
version=1
nRows=8
nColumns=36
inDegrees=yes

Units are S.I. units (second, meters, Newtons, ...)
If the header above contains a line with 'inDegrees', this indicates whether rotational values are in degrees (yes) or radians (no).

endheader
time	pelvis_tilt	pelvis_list	pelvis_rotation	pelvis_tx	pelvis_ty	pelvis_tz	hip_flexion_r	hip_adduction_r	hip_rotation_r	knee_angle_r	knee_angle_r_beta	ankle_angle_r	subtalar_angle_r	mtp_angle_r	hip_flexion_l	hip_adduction_l	hip_rotation_l	knee_angle_l	knee_angle_l_beta	ankle_angle_l	subtalar_angle_l	mtp_angle_l	lumbar_extension	lumbar_bending	lumbar_rotation	arm_flex_r	arm_add_r	arm_rot_r	elbow_flex_r	pro_sup_r	arm_flex_l	arm_add_l	arm_rot_l	elbow_flex_l	pro_sup_l
      1.47000000	     -3.69006453	      1.32793608	     -2.36102447	     -0.49307180	      1.09666749	     -0.56386015	     26.47487245	     -4.41246870	     -6.28246873	     11.30534206	      0.19731544	    -37.50142280	     -4.35604349	     -7.53738030	     26.37942910	     -5.28315037	     -8.94699865	      9.21702524	      0.16086744	    -35.90748081	      1.11018905	     -7.53738030	    -13.31306084	     -0.64673840	     -1.44066060	    -18.28843227	    -83.98204624	    -11.50004188	    101.74964320	    103.76383400	     33.99337096	    -73.89017183	     18.04013621	     64.02166586	    108.66409906
      1.48000000	     -3.17145644	      1.32423426	     -2.63896900	     -0.48050459	      1.07433456	     -0.56324790	     26.58461287	     -4.48073639	     -5.90186438	     12.07666828	      0.21077762	    -38.25853595	     -4.69103584	     -7.51511545	     26.41458196	     -5.51900167	     -8.86334208	     10.71598715	      0.18702926	    -36.22706916	     -0.10522633	     -7.51511545	    -13.98218480	     -0.31043248	     14.36407183	    -80.98736639	    -56.39672392	    -73.89837971	    110.86933168	    105.23252649	     68.66260363	    -55.59354345	     56.92697774	     47.91907744	    108.76162110
      1.49000000	     -2.62113787	      1.33794560	     -2.90409245	     -0.46792752	      1.05136393	     -0.56282677	     26.69653140	     -4.55113124	     -4.95281735	     13.08751618	      0.22842025	    -38.99445507	     -4.67275419	     -7.51429488	     26.57495310	     -5.72804694	     -8.55646050	     12.77249586	      0.22292211	    -36.24279921	     -1.41737321	     -7.51429488	    -14.59702737	      0.08206176	     14.80576911	    -82.55491977	    -51.65387020	    -74.83155009	    111.75591163	    104.48110174	     66.06109061	    -59.39528686	     57.37228920	     50.46236190	    107.93633823
      1.50000000	     -2.08338923	      1.24421468	     -3.09120641	     -0.45528611	      1.02745833	     -0.56268608	     26.90962393	     -4.51293871	     -3.70934726	     14.09101366	      0.24593458	    -40.70002225	     -4.55462744	     -7.51034789	     26.94005197	     -5.94702062	     -7.73387015	     15.10020952	      0.26354837	    -37.00405771	     -2.63852071	     -7.51034789	    -15.43223831	      0.57320449	     12.84871037	    -82.72783786	    -50.33512690	    -74.55202759	    111.93328354	    105.14823001	     56.03834517	    -66.76380178	     48.54219002	     56.72408330	    107.14012193
      1.51000000	     -1.61822245	      1.05269064	     -3.29316145	     -0.44300839	      1.00262754	     -0.56242688	     27.44688051	     -4.30503342	     -2.39815553	     15.70387460	      0.27408432	    -41.82091752	     -4.74299402	     -7.50476707	     27.64027415	     -6.25793908	     -6.91761862	     17.84887082	      0.31152156	    -37.55187410	     -3.49223754	     -7.50476707	    -16.38830251	      0.98781862	     10.06528728	    -81.74522877	    -50.22468169	    -73.24882702	    111.45796348	    105.52832359	     34.33283666	    -74.04691794	     28.44363534	     63.33052717	    107.20251832
      1.52000000	     -1.47995443	      0.82275856	     -3.59845392	     -0.43180113	      0.97680056	     -0.56206556	     28.91949581	     -3.87506035	     -1.09530046	     19.95812728	      0.34833503	    -37.43155594	     -6.80749584	     -7.49937878	     29.05572128	     -6.67437880	     -6.42386696	     22.07592120	      0.38529751	    -33.76980133	     -5.30897524	     -7.49937878	    -17.28507642	      1.08969257	      5.35169742	    -78.45891456	    -53.34738796	    -69.56326889	    109.81775545	    105.20454514	    -20.05018562	    -75.95048495	    -24.73283351	     71.09094241	    107.03509902
      1.53000000	     -1.62089101	      0.72522872	     -3.93132131	     -0.42180330	      0.94946225	     -0.56173097	     31.76844681	     -3.42902605	      0.13288353	     28.46025991	      0.49672524	    -23.69637557	     -9.30409289	     -7.50006511	     31.39725136	     -7.03955219	     -6.25816250	     28.96816683	      0.50558989	    -22.49298691	     -8.27811017	     -7.50006511	    -17.92817030	      0.68229539	     -0.36680560	    -72.26098013	    -58.18240325	    -62.70831656	    106.69720009	    104.88286091	    -56.96836547	    -66.38216590	    -60.52914950	     77.71171936	    106.32362356
      1.54000000	     -1.53684552	      0.78461632	     -4.06543676	     -0.41205006	      0.92150361	     -0.56164111	     34.92561396	     -3.12810957	      1.15296869	     38.68615478	      0.67520078	     -6.71525280	     -9.81778464	     -7.50004006	     33.88265663	     -7.11092569	     -5.87368769	     37.27039542	      0.65049111	     -7.25396898	    -10.24010970	     -7.50004006	    -18.55959735	      0.46496374	     -2.14491868	    -69.49829241	    -56.71529915	    -59.16457729	    104.73706666	    105.76610148	    -63.69648272	    -60.12575034	    -65.71816114	     79.54804282	    106.13354461
